<svg width="65" height="40" viewBox="0 0 65 40" fill="none" xmlns="http://www.w3.org/2000/svg">
<g id="Group 1">
<g id="Group">
<g id="Group_2">
<path id="Vector" d="M0.1875 6.79002C0.1875 5.96987 0.331738 5.25245 0.621536 4.63635C0.910673 4.02157 1.30603 3.50951 1.80827 3.09878C2.31051 2.68804 2.9019 2.3774 3.58309 2.16279C4.26363 1.94949 5.00388 1.8429 5.8044 1.8429C6.85935 1.8429 7.80412 2.03902 8.6388 2.43268C9.47216 2.82502 10.1363 3.40688 10.63 4.17562C11.1237 3.40678 11.7787 2.82492 12.5963 2.43268C13.4133 2.03902 14.3403 1.8429 15.3789 1.8429C16.1616 1.8429 16.8941 1.94553 17.5746 2.1509C18.2551 2.35495 18.8427 2.66295 19.3363 3.07236C19.83 3.4831 20.2215 3.99515 20.5113 4.61125C20.8004 5.22604 20.9453 5.94346 20.9453 6.76361V15.0691H18.0342V7.76412C18.0342 6.58456 17.7706 5.74337 17.2428 5.23915C16.715 4.73493 16.0003 4.4822 15.0982 4.4822C14.2301 4.4822 13.5023 4.76521 12.9149 5.32867C12.3282 5.89214 12.0344 6.807 12.0344 8.07081V15.0691H9.1233V8.07081C9.1233 6.807 8.8302 5.89214 8.24278 5.32867C7.65535 4.76521 6.92756 4.4822 6.05949 4.4822C5.17434 4.4822 4.45975 4.73889 3.91487 5.25236C3.36999 5.76441 3.09793 6.61097 3.09793 7.78912V15.0691H0.1875V6.79002Z" fill="#00B2E3"/>
<path id="Vector_2" d="M23.9067 3.55942C23.9067 3.09869 24.0425 2.75635 24.3152 2.53522C24.5873 2.31278 24.9617 2.20081 25.4384 2.20081C25.7452 2.20081 26.0298 2.24033 26.294 2.31665C26.5576 2.39429 26.732 2.44957 26.8172 2.48381V9.32669C26.8172 10.3364 27.0854 11.1394 27.6217 11.7371C28.158 12.3349 28.9873 12.6336 30.1112 12.6336C31.149 12.6336 31.966 12.3308 32.562 11.7239C33.158 11.1171 33.4556 10.2245 33.4556 9.04501V3.55942C33.4556 3.09869 33.592 2.75635 33.8641 2.53522C34.1362 2.31278 34.5106 2.20081 34.9879 2.20081C35.2941 2.20081 35.5786 2.24033 35.8429 2.31665C36.1064 2.39429 36.2809 2.44957 36.3667 2.48381V13.7105C36.3667 14.9242 36.2041 15.9536 35.8815 16.7988C35.5577 17.6453 35.0981 18.3416 34.5027 18.888C33.9067 19.4343 33.1915 19.832 32.3581 20.0807C31.5235 20.3283 30.5964 20.4519 29.575 20.4519C28.8767 20.4519 28.2381 20.4137 27.6599 20.3361C27.0809 20.2598 26.5662 20.1702 26.1151 20.0675C25.664 19.9648 25.2936 19.8661 25.0044 19.7726C24.7146 19.6778 24.5108 19.6055 24.3921 19.554C24.5278 19.1959 24.6557 18.8327 24.775 18.4653C24.8937 18.0981 25.013 17.7347 25.1323 17.3753C25.251 17.4266 25.4386 17.4951 25.6942 17.5806C25.9493 17.6662 26.2554 17.7478 26.6134 17.8242C26.9707 17.9019 27.3746 17.9651 27.8257 18.0164C28.2768 18.0677 28.758 18.094 29.2687 18.094C29.9323 18.094 30.5276 18.0203 31.056 17.8755C31.5832 17.7307 32.0297 17.478 32.3961 17.1199C32.762 16.7605 33.0426 16.2867 33.2387 15.6969C33.434 15.1071 33.5324 14.3685 33.5324 13.48C33.1915 13.975 32.6597 14.3725 31.9365 14.6713C31.2127 14.9702 30.4174 15.1203 29.5493 15.1203C28.7324 15.1203 27.9745 15.0044 27.2769 14.7741C26.5786 14.5437 25.9832 14.2106 25.4896 13.7749C24.9959 13.3391 24.6091 12.7967 24.3278 12.1465C24.0471 11.4974 23.9068 10.7537 23.9068 9.91638L23.9067 3.55942Z" fill="#00B2E3"/>
<path id="Vector_3" fill-rule="evenodd" clip-rule="evenodd" d="M47.9122 6.83437C47.9274 6.82729 47.9432 6.82069 47.9574 6.81361C48.0098 6.79107 48.0576 6.77192 48.1082 6.74682C48.1175 6.74362 48.1235 6.73909 48.1301 6.73692C48.5431 6.54438 48.9349 6.31354 49.2987 6.05101V6.04988C49.4231 5.9613 49.5423 5.86941 49.6617 5.7731C49.665 5.76979 49.6715 5.76545 49.6752 5.76112C49.7696 5.68508 49.8616 5.60358 49.9499 5.52207C49.981 5.49471 50.0137 5.46736 50.0447 5.43896C50.1025 5.38264 50.1596 5.32416 50.2179 5.26614C50.2762 5.20869 50.3334 5.15077 50.3911 5.09002C50.4179 5.06039 50.4468 5.02813 50.4741 4.997C50.5536 4.90616 50.6342 4.81644 50.711 4.72239C50.717 4.71749 50.7192 4.71201 50.7236 4.70701C50.8189 4.58938 50.9116 4.46797 51.0008 4.34439C51.2619 3.97573 51.4913 3.58452 51.6825 3.16935C51.6851 3.16284 51.689 3.15567 51.6945 3.14964C51.7158 3.09549 51.7376 3.04738 51.761 2.99653C51.7659 2.98125 51.7724 2.96596 51.7806 2.95059C52.1294 2.14704 52.0062 1.6098 52.345 1.6098C52.685 1.6098 52.5635 2.14695 52.9123 2.95059C52.9194 2.96596 52.9264 2.98125 52.9313 2.99653C52.9547 3.04738 52.9755 3.09558 52.9989 3.14964C53.0022 3.15567 53.0043 3.16284 53.0098 3.16935C53.2 3.58452 53.4294 3.97573 53.6915 4.34439C53.7792 4.46797 53.8723 4.58938 53.9704 4.70701C53.9725 4.71192 53.9764 4.71739 53.9813 4.72239C54.0576 4.81635 54.1372 4.90559 54.2178 4.99644C54.2461 5.02757 54.2723 5.06039 54.3017 5.09058C54.3578 5.15077 54.4162 5.20869 54.4745 5.26557C54.5306 5.32359 54.5884 5.38264 54.6489 5.43896C54.6782 5.46736 54.7105 5.49471 54.7426 5.52207C54.833 5.60367 54.9224 5.68508 55.015 5.76112C55.021 5.76545 55.0265 5.76979 55.0303 5.7731C55.1479 5.86941 55.27 5.9613 55.3926 6.04988V6.05101C55.7593 6.31364 56.1483 6.54438 56.5612 6.73692C56.5695 6.73909 56.5754 6.74352 56.5831 6.74682C56.6355 6.77192 56.6822 6.79107 56.7345 6.81361C56.7481 6.82069 56.7645 6.82729 56.7803 6.83437C57.5791 7.18275 58.1164 7.0603 58.1164 7.40208C58.1164 7.74404 57.5792 7.62141 56.7803 7.96997C56.7645 7.97648 56.7481 7.98422 56.7345 7.99016C56.6822 8.01365 56.6355 8.0328 56.5831 8.05695C56.5754 8.06072 56.5695 8.06572 56.5612 8.06846C56.1482 8.25939 55.7593 8.49014 55.3926 8.75324C55.27 8.84295 55.1479 8.9354 55.0303 9.03105C55.0265 9.03549 55.021 9.03822 55.015 9.042C54.9235 9.11916 54.833 9.20011 54.7426 9.28105C54.7105 9.3101 54.6783 9.3368 54.6489 9.36585C54.5884 9.4217 54.5306 9.48066 54.4745 9.5382C54.4162 9.59612 54.3578 9.65357 54.3017 9.71319C54.2724 9.74442 54.2462 9.77725 54.2178 9.80838C54.1372 9.89752 54.0576 9.98828 53.9813 10.0824C53.9764 10.0868 53.9726 10.0922 53.9704 10.0972C53.8723 10.2149 53.7792 10.3357 53.6915 10.461C53.4293 10.827 53.1999 11.2202 53.0098 11.6349C53.0043 11.6425 53.0023 11.648 52.9989 11.6562C52.9756 11.7082 52.9548 11.7564 52.9313 11.8078C52.9264 11.8225 52.9193 11.8378 52.9123 11.8538C52.5635 12.6573 52.6851 13.1945 52.345 13.1945C52.0062 13.1945 52.1293 12.6574 51.7806 11.8538C51.7723 11.8378 51.7659 11.8225 51.761 11.8078C51.7376 11.7564 51.7158 11.7082 51.6945 11.6562C51.689 11.648 51.6852 11.6425 51.6825 11.6349C51.4913 11.2202 51.2618 10.8269 51.0008 10.461C50.9116 10.3357 50.8189 10.2149 50.7236 10.0972C50.7192 10.0923 50.717 10.0869 50.711 10.0824C50.6342 9.9879 50.5536 9.89705 50.4741 9.80611C50.4468 9.77725 50.4179 9.74442 50.3911 9.71367C50.3334 9.65348 50.2762 9.59603 50.2168 9.53811C50.1596 9.48066 50.1025 9.42104 50.0447 9.36576C50.0136 9.3368 49.981 9.31001 49.9488 9.28095C49.8594 9.19992 49.7695 9.11907 49.6752 9.04191C49.6715 9.03813 49.665 9.0354 49.6617 9.03096C49.5423 8.93531 49.4231 8.84286 49.2987 8.75314C48.9349 8.48995 48.543 8.25921 48.1301 8.06837C48.1235 8.06554 48.1175 8.06063 48.1082 8.05686C48.0576 8.0328 48.0098 8.01365 47.9574 7.99007C47.9432 7.98412 47.9274 7.97639 47.9122 7.96988C47.1129 7.62141 46.5773 7.74395 46.5773 7.40198C46.5773 7.0603 47.1129 7.18275 47.9122 6.83437Z" fill="#00B2E3"/>
<path id="Vector_4" fill-rule="evenodd" clip-rule="evenodd" d="M41.8348 13.362C41.8446 13.3571 41.856 13.3521 41.867 13.3477C41.9002 13.3329 41.934 13.3187 41.97 13.3018C41.9749 13.2995 41.9787 13.2974 41.9836 13.2952C42.2647 13.1644 42.5328 13.0074 42.7818 12.828V12.8275C42.8657 12.7667 42.949 12.7033 43.0286 12.6382C43.0324 12.6354 43.0362 12.6327 43.0384 12.63C43.1033 12.5769 43.1643 12.5217 43.2259 12.4664C43.2471 12.4479 43.2688 12.4296 43.289 12.4096C43.3293 12.3729 43.3685 12.3318 43.4088 12.2919C43.4481 12.2519 43.4873 12.2137 43.5254 12.1726C43.545 12.1513 43.5636 12.1295 43.5827 12.1086C43.6371 12.0467 43.6932 11.985 43.7439 11.921C43.7471 11.9178 43.7499 11.9145 43.7531 11.9111C43.8174 11.8302 43.8807 11.7481 43.9406 11.6628H43.9423C44.1204 11.4127 44.2773 11.1454 44.4065 10.8619C44.4087 10.8564 44.4124 10.8525 44.4152 10.8476C44.4315 10.8121 44.4462 10.7782 44.4598 10.7438C44.4647 10.7334 44.4707 10.7229 44.4728 10.712C44.7109 10.1645 44.627 9.79797 44.8591 9.79797C45.0917 9.79797 45.0101 10.1646 45.2465 10.712C45.2498 10.7229 45.2558 10.7334 45.2596 10.7438C45.2748 10.7782 45.2896 10.8121 45.3043 10.8476C45.3081 10.8525 45.3108 10.8564 45.313 10.8619C45.4421 11.1453 45.6001 11.4127 45.7778 11.6628H45.7788C45.8393 11.7481 45.902 11.8301 45.9679 11.9111C45.9691 11.9145 45.9711 11.9177 45.9755 11.921C46.0256 11.985 46.0823 12.0464 46.1373 12.1081C46.1563 12.1295 46.1755 12.1513 46.194 12.1726C46.2326 12.2137 46.2703 12.2519 46.3123 12.2919C46.3499 12.3308 46.3902 12.3729 46.4294 12.4096C46.4512 12.4297 46.4723 12.4479 46.4931 12.4664C46.5552 12.5216 46.6173 12.5769 46.681 12.63C46.6833 12.6327 46.6887 12.6354 46.692 12.6382C46.7715 12.7033 46.8532 12.7667 46.9383 12.8275V12.828C47.1878 13.0074 47.4548 13.1644 47.7355 13.2952C47.7409 13.2974 47.7442 13.2995 47.7491 13.3018C47.7856 13.3187 47.8204 13.3329 47.8536 13.3477C47.8634 13.3521 47.8749 13.3571 47.8847 13.362C48.4301 13.5993 48.7957 13.5162 48.7957 13.7498C48.7957 13.9828 48.4301 13.8991 47.8847 14.1376C47.8749 14.1414 47.8634 14.1452 47.8536 14.1507C47.8203 14.166 47.7855 14.1786 47.7491 14.1966C47.7442 14.1983 47.7408 14.2015 47.7355 14.2037C47.4548 14.3345 47.1878 14.4915 46.9383 14.6714V14.6731C46.8533 14.7316 46.7716 14.7957 46.692 14.8602C46.6887 14.8634 46.6833 14.8667 46.681 14.8684C46.6173 14.9215 46.5552 14.9761 46.4942 15.0314C46.4735 15.0511 46.4511 15.0691 46.4294 15.0894C46.3902 15.1266 46.3499 15.1671 46.3123 15.2075C46.2703 15.2464 46.2327 15.2858 46.194 15.3263C46.1755 15.3471 46.1563 15.3695 46.1373 15.3903C46.0823 15.4521 46.0256 15.5134 45.9755 15.5779C45.9711 15.5811 45.969 15.585 45.9679 15.5883C45.902 15.6691 45.8393 15.7507 45.7788 15.835H45.7778C45.6001 16.0865 45.4421 16.3535 45.313 16.6374C45.3107 16.6428 45.3081 16.6461 45.3043 16.651C45.2896 16.6871 45.2748 16.7205 45.2596 16.7556C45.2558 16.7642 45.2498 16.7758 45.2465 16.7867C45.0101 17.3349 45.0917 17.7007 44.8591 17.7007C44.627 17.7007 44.7109 17.3348 44.4728 16.7867C44.4707 16.7758 44.4647 16.7642 44.4598 16.7556C44.4462 16.7205 44.4315 16.6871 44.4152 16.651C44.4123 16.6461 44.4086 16.6428 44.4065 16.6374C44.2773 16.3535 44.1204 16.0865 43.9423 15.835H43.9406C43.8807 15.7507 43.8174 15.6691 43.7531 15.5883C43.7499 15.5849 43.7471 15.5811 43.7439 15.5779C43.6932 15.5134 43.6371 15.452 43.5827 15.3903C43.5636 15.3689 43.545 15.3471 43.5254 15.3263C43.4872 15.2858 43.4481 15.2464 43.4088 15.2075C43.3674 15.1671 43.3293 15.1261 43.289 15.0894C43.2688 15.0691 43.247 15.0511 43.2248 15.0314C43.1643 14.9762 43.1033 14.9215 43.0384 14.8684C43.0362 14.8667 43.0324 14.8635 43.0286 14.8602C42.9491 14.7957 42.8657 14.7316 42.7818 14.6731V14.6714C42.5328 14.4915 42.2646 14.3345 41.9836 14.2037C41.9787 14.2015 41.9749 14.1983 41.97 14.1966C41.934 14.1786 41.9003 14.166 41.867 14.1507C41.856 14.1452 41.8446 14.1414 41.8348 14.1376C41.2888 13.8991 40.9238 13.9828 40.9238 13.7498C40.9238 13.5162 41.2888 13.5993 41.8348 13.362Z" fill="#00B2E3"/>
</g>
<g id="Group_3">
<path id="Vector_5" d="M0 20.5192C0 19.1212 0.746757 18.4235 2.24103 18.4235H13.1404C14.3685 18.4235 14.9828 18.9777 14.9828 20.0874C14.9828 20.4785 14.9212 20.8325 14.7985 21.1512C14.6759 21.4698 14.5835 21.6804 14.5225 21.783H3.71492V27.3924H12.2501C13.4781 27.3924 14.0924 27.9479 14.0924 29.0577C14.0924 29.4474 14.0308 29.8027 13.9082 30.1201C13.7856 30.44 13.6931 30.6506 13.6322 30.7519H3.71492V39.5681H0V20.5192Z" fill="#FFB71B"/>
<path id="Vector_6" d="M19.373 17.1597C19.9671 17.1597 20.468 17.365 20.8778 17.7758C21.2869 18.1865 21.4921 18.6907 21.4921 19.2857C21.4921 19.8821 21.2869 20.3849 20.8778 20.7969C20.468 21.2077 19.9671 21.4131 19.373 21.4131C18.7797 21.4131 18.2781 21.2077 17.8689 20.7969C17.4592 20.3849 17.2546 19.882 17.2546 19.2857C17.2546 18.6906 17.4592 18.1865 17.8689 17.7758C18.2782 17.365 18.7797 17.1597 19.373 17.1597ZM17.6231 25.7284C17.6231 25.1532 17.7871 24.7371 18.1142 24.4805C18.442 24.2238 18.9023 24.0947 19.4963 24.0947C19.8648 24.0947 20.2024 24.1408 20.5093 24.2329C20.8162 24.3264 21.0207 24.3922 21.1236 24.433V39.5681H17.6231V25.7284Z" fill="#FFB71B"/>
<path id="Vector_7" d="M24.8693 29.6119C24.8693 27.7215 25.4475 26.2576 26.6041 25.2202C27.76 24.1828 29.3617 23.6628 31.4093 23.6628C32.6983 23.6628 33.7473 23.8432 34.5564 24.2026C35.3649 24.562 35.7687 25.1123 35.7687 25.8522C35.7687 26.201 35.6717 26.5406 35.4776 26.8684C35.2823 27.1976 35.1242 27.4029 35.0016 27.4859C34.6528 27.3213 34.2233 27.1673 33.712 27.0225C33.1999 26.879 32.6163 26.8066 31.962 26.8066C29.567 26.8066 28.3698 28.0808 28.3698 30.6295V39.5681H24.8693V29.6119Z" fill="#FFB71B"/>
<path id="Vector_8" d="M37.7336 35.7149C37.8766 35.8177 38.1323 35.9519 38.5008 36.1164C38.8693 36.281 39.3242 36.4495 39.8671 36.6246C40.4087 36.7997 41.029 36.9485 41.7253 37.0709C42.4202 37.1947 43.1782 37.2566 43.9964 37.2566C45.0611 37.2566 45.9305 37.1184 46.6059 36.8405C47.2825 36.5627 47.6195 36.0849 47.6195 35.4069C47.6195 34.8317 47.4044 34.3946 46.9743 34.0971C46.5456 33.7996 45.7771 33.5889 44.6717 33.4652L42.2773 33.1875C41.459 33.1059 40.7063 32.9571 40.0206 32.7412C39.3348 32.5253 38.746 32.2317 38.2556 31.8618C37.7638 31.4919 37.3797 31.0351 37.1043 30.4901C36.8277 29.9464 36.6899 29.2935 36.6899 28.5339C36.6899 27.8757 36.8171 27.2543 37.0728 26.6685C37.3286 26.0827 37.7337 25.564 38.2858 25.1124C38.8392 24.6595 39.5603 24.3055 40.4507 24.0487C41.341 23.792 42.4202 23.663 43.6896 23.663C45.8178 23.663 47.4714 23.8999 48.6489 24.3726C49.8251 24.8452 50.4139 25.4613 50.4139 26.2222C50.4139 26.4684 50.368 26.6842 50.2762 26.8686C50.1831 27.0542 50.0808 27.2187 49.968 27.3622C49.8551 27.5057 49.7385 27.6242 49.6153 27.7164C49.492 27.8085 49.4002 27.8664 49.3386 27.8862C49.2572 27.8046 49.0776 27.6755 48.8023 27.5004C48.5256 27.3267 48.1518 27.1516 47.6811 26.9765C47.2104 26.8027 46.6478 26.6487 45.9921 26.5144C45.3365 26.3815 44.5798 26.3143 43.721 26.3143C41.3462 26.3143 40.1582 26.941 40.1582 28.1943C40.1582 28.7288 40.3838 29.1342 40.8349 29.4119C41.2847 29.6897 41.9285 29.8793 42.7691 29.9819L45.9004 30.3821C47.5986 30.6085 48.9191 31.0758 49.8605 31.7854C50.802 32.4937 51.2728 33.5376 51.2728 34.9133C51.2728 36.4548 50.6644 37.6883 49.4462 38.6124C48.2281 39.5379 46.4735 40 44.1814 40C43.0759 40 42.0728 39.9171 41.172 39.7525C40.2711 39.588 39.4883 39.3984 38.8234 39.1825C38.1573 38.9666 37.6209 38.7573 37.2119 38.5507C36.8014 38.3453 36.5365 38.1912 36.4133 38.0886L37.7336 35.7149Z" fill="#FFB71B"/>
<path id="Vector_9" d="M54.2821 21.3511C54.2821 20.7758 54.4461 20.3598 54.7739 20.1031C55.1004 19.8465 55.5515 19.7174 56.1245 19.7174C56.4929 19.7174 56.8352 19.7634 57.1525 19.8556C57.4699 19.9491 57.6797 20.0163 57.7819 20.057V24.0946H62.2338C62.9105 24.0946 63.3852 24.2328 63.6618 24.5106C63.9384 24.7883 64.0762 25.1938 64.0762 25.7283C64.0762 26.0771 64.025 26.401 63.9228 26.6985C63.8205 26.9973 63.7392 27.208 63.6776 27.3304H57.782V34.2048C57.782 34.7393 57.8541 35.1751 57.9971 35.5147C58.14 35.8543 58.3394 36.1268 58.5963 36.3309C58.8521 36.5376 59.1484 36.681 59.4867 36.7626C59.8236 36.8456 60.1778 36.8864 60.5461 36.8864C61.1389 36.8864 61.6922 36.7942 62.2036 36.6086C62.715 36.4243 63.0835 36.2492 63.309 36.0847L64.7213 38.4279C64.5575 38.5504 64.3266 38.7044 64.0303 38.89C63.734 39.0743 63.3707 39.2494 62.9407 39.4139C62.5106 39.5785 62.0293 39.7167 61.4969 39.83C60.9645 39.9432 60.3811 39.9998 59.7477 39.9998C57.946 39.9998 56.5848 39.5324 55.6643 38.5964C54.7425 37.6618 54.2822 36.4348 54.2822 34.913L54.2821 21.3511Z" fill="#FFB71B"/>
<path id="Vector_10" fill-rule="evenodd" clip-rule="evenodd" d="M42.9501 2.25046C42.9576 2.24725 42.9637 2.24395 42.9703 2.24112C42.9937 2.23018 43.0132 2.2231 43.0361 2.2115C43.0384 2.2099 43.0416 2.20829 43.0444 2.20716C43.2237 2.12518 43.3898 2.025 43.5495 1.91189C43.6013 1.87416 43.6546 1.83359 43.7032 1.79312C43.7069 1.79095 43.7081 1.78935 43.7107 1.78709C43.75 1.75482 43.7892 1.71935 43.8284 1.68483C43.8409 1.67285 43.8546 1.66077 43.8682 1.64879C43.895 1.6253 43.9194 1.59964 43.9445 1.57436C43.969 1.54974 43.9934 1.52559 44.0169 1.49889C44.0311 1.48635 44.042 1.47153 44.0551 1.45842C44.0895 1.41956 44.1228 1.38069 44.1548 1.34022C44.1575 1.33805 44.1592 1.33588 44.1603 1.33371C44.2023 1.2823 44.2414 1.23032 44.2807 1.17664C44.3934 1.01967 44.4937 0.850621 44.5744 0.671195C44.5764 0.66846 44.5776 0.666384 44.5787 0.662422C44.5885 0.639498 44.5977 0.61931 44.6075 0.59733C44.6086 0.590821 44.6118 0.583086 44.6162 0.576577C44.765 0.232442 44.7132 0 44.8592 0C45.0063 0 44.954 0.232442 45.1033 0.576577C45.1054 0.583086 45.1092 0.590821 45.112 0.59733C45.1218 0.61931 45.1299 0.639498 45.1403 0.662422C45.1419 0.666384 45.144 0.66846 45.1452 0.671195C45.2257 0.850621 45.3255 1.01967 45.4388 1.17664C45.4786 1.23032 45.5168 1.2823 45.5592 1.33371C45.5602 1.33579 45.5613 1.33805 45.5624 1.34022C45.5952 1.38069 45.6295 1.41956 45.6654 1.45842C45.6768 1.47153 45.6883 1.48635 45.7014 1.49889C45.7237 1.52568 45.7515 1.54974 45.7754 1.57436C45.8 1.59955 45.8261 1.62521 45.8506 1.64879C45.8642 1.66077 45.8783 1.67285 45.892 1.68483C45.9302 1.71935 45.9689 1.75482 46.0086 1.78709C46.0113 1.78935 46.0135 1.79105 46.0162 1.79312C46.0658 1.83359 46.1192 1.87416 46.1715 1.91189C46.3296 2.025 46.4974 2.12518 46.6744 2.20716C46.6782 2.20829 46.6809 2.20999 46.6831 2.2115C46.7059 2.22301 46.7262 2.23008 46.7491 2.24112C46.7561 2.24395 46.7616 2.24716 46.7692 2.25046C47.1135 2.39923 47.3424 2.34725 47.3424 2.49394C47.3424 2.64157 47.1136 2.58809 46.7692 2.73893C46.7616 2.74232 46.7561 2.74383 46.7491 2.7478C46.7262 2.75713 46.7059 2.76525 46.6831 2.77628C46.6809 2.77732 46.6782 2.77902 46.6744 2.7811C46.4974 2.86383 46.3296 2.96222 46.1715 3.07542V3.07655C46.1192 3.11372 46.0659 3.15429 46.0162 3.19645C46.0135 3.19749 46.0113 3.19919 46.0086 3.20126C45.9689 3.23305 45.9301 3.26749 45.892 3.30258C45.8784 3.31513 45.8642 3.32767 45.8506 3.33918C45.8261 3.3638 45.8 3.38946 45.7766 3.41361C45.7515 3.4388 45.7248 3.46389 45.7014 3.48965C45.6884 3.50276 45.6768 3.51644 45.6654 3.53068C45.6295 3.56955 45.5952 3.60889 45.5624 3.64832C45.5613 3.65049 45.5602 3.65266 45.5592 3.65426C45.5167 3.70567 45.4786 3.75709 45.4388 3.81133C45.3254 3.97057 45.2257 4.13848 45.1452 4.31725C45.144 4.32008 45.1419 4.32215 45.1403 4.32555C45.1299 4.34904 45.1218 4.36923 45.112 4.39168C45.1091 4.39772 45.1054 4.40432 45.1033 4.41026C44.954 4.7577 45.0063 4.98854 44.8592 4.98854C44.7132 4.98854 44.765 4.75761 44.6162 4.41026C44.6118 4.40432 44.6085 4.39772 44.6075 4.39168C44.5977 4.36923 44.5885 4.34913 44.5787 4.32555C44.5776 4.32215 44.5764 4.32008 44.5744 4.31725C44.4937 4.13848 44.3933 3.97057 44.2807 3.81133C44.2414 3.75709 44.2022 3.70567 44.1603 3.65426C44.1592 3.65266 44.1575 3.65049 44.1548 3.64832C44.1227 3.60889 44.0895 3.56898 44.0551 3.53012C44.0421 3.51644 44.0312 3.50276 44.0169 3.48965C43.9935 3.46389 43.9691 3.4388 43.9445 3.41361C43.9194 3.38956 43.895 3.36333 43.8682 3.33918C43.8546 3.32767 43.8409 3.31513 43.8267 3.30258C43.7891 3.26749 43.75 3.23315 43.7107 3.20126C43.7081 3.19919 43.7069 3.19749 43.7032 3.19645C43.6546 3.15429 43.6013 3.11382 43.5495 3.07655V3.07542C43.3898 2.96231 43.2237 2.86383 43.0444 2.7811C43.0416 2.77902 43.0384 2.77732 43.0361 2.77628C43.0133 2.76534 42.9937 2.75713 42.9703 2.7478C42.9637 2.74383 42.9576 2.74232 42.9501 2.73893C42.6058 2.58799 42.3763 2.64157 42.3763 2.49394C42.3762 2.34725 42.6058 2.39923 42.9501 2.25046Z" fill="#FFB71B"/>
</g>
</g>
</g>
</svg>
