<svg xmlns="http://www.w3.org/2000/svg" width="24" height="25" viewBox="0 0 24 25" fill="none">
  <g clip-path="url(#clip0_1686_692)">
    <path d="M20.4853 4.01469C18.2188 1.74825 15.2053 0.5 12 0.5C8.79469 0.5 5.78123 1.74825 3.51469 4.01469C1.24825 6.28123 0 9.29469 0 12.5C0 15.7053 1.24825 18.7188 3.51469 20.9853C5.78123 23.2518 8.79469 24.5 12 24.5C15.2053 24.5 18.2188 23.2518 20.4853 20.9853C22.7518 18.7188 24 15.7053 24 12.5C24 9.29469 22.7518 6.28123 20.4853 4.01469ZM12 23.0155C6.20175 23.0155 1.48454 18.2983 1.48454 12.5C1.48454 6.70175 6.20175 1.98454 12 1.98454C17.7983 1.98454 22.5155 6.70175 22.5155 12.5C22.5155 18.2983 17.7983 23.0155 12 23.0155Z" fill="white"/>
    <path d="M8.95996 17.1553L17.0198 12.5L8.95996 7.84476V17.1553Z" fill="white"/>
  </g>
  <defs>
    <clipPath id="clip0_1686_692">
      <rect width="24" height="24" fill="white" transform="translate(0 0.5)"/>
    </clipPath>
  </defs>
</svg>