<svg width="64" height="64" viewBox="0 0 64 64" fill="none" xmlns="http://www.w3.org/2000/svg">
<g id="comment-question-solid 1" clip-path="url(#clip0_322_509)">
<path id="Vector" d="M32 56C49.675 56 64 44.3625 64 30C64 15.6375 49.675 4 32 4C14.325 4 -6.02286e-06 15.6375 -6.02286e-06 30C-6.02286e-06 35.6375 2.21249 40.85 5.96249 45.1125C5.72499 48.175 4.53749 50.9 3.28749 52.975C2.59999 54.125 1.89999 55.05 1.38749 55.675C1.12499 55.9875 0.924994 56.225 0.774994 56.3875C0.699994 56.4625 0.649994 56.525 0.612494 56.5625L0.574994 56.6C-6.02007e-06 57.175 -0.162506 58.025 0.149994 58.775C0.462494 59.525 1.18749 60.0125 1.99999 60.0125C5.58749 60.0125 9.19999 58.9 12.2 57.6C15.0625 56.35 17.5 54.8625 18.9875 53.775C22.9625 55.2125 27.3625 56.0125 32 56.0125V56ZM21.225 18.6625C22.2125 15.875 24.8625 14 27.825 14H35.1125C39.475 14 43 17.5375 43 21.8875C43 24.7125 41.4875 27.325 39.0375 28.7375L35 31.05C34.975 32.675 33.6375 34 32 34C30.3375 34 29 32.6625 29 31V29.3125C29 28.2375 29.575 27.25 30.5125 26.7125L36.05 23.5375C36.6375 23.2 37 22.575 37 21.9C37 20.85 36.15 20.0125 35.1125 20.0125H27.825C27.4 20.0125 27.025 20.275 26.8875 20.675L26.8375 20.825C26.2875 22.3875 24.5625 23.2 23.0125 22.65C21.4625 22.1 20.6375 20.375 21.1875 18.825L21.2375 18.675L21.225 18.6625ZM28 42C28 40.9391 28.4214 39.9217 29.1716 39.1716C29.9217 38.4214 30.9391 38 32 38C33.0609 38 34.0783 38.4214 34.8284 39.1716C35.5786 39.9217 36 40.9391 36 42C36 43.0609 35.5786 44.0783 34.8284 44.8284C34.0783 45.5786 33.0609 46 32 46C30.9391 46 29.9217 45.5786 29.1716 44.8284C28.4214 44.0783 28 43.0609 28 42Z" fill="#8246AF"/>
</g>
<defs>
<clipPath id="clip0_322_509">
<rect width="64" height="64" fill="white"/>
</clipPath>
</defs>
</svg>
