<svg width="64" height="64" viewBox="0 0 64 64" fill="none" xmlns="http://www.w3.org/2000/svg">
<g id="message-smile-solid 1" clip-path="url(#clip0_322_505)">
<path id="Vector" d="M0 8C0 3.5875 3.5875 0 8 0H56C60.4125 0 64 3.5875 64 8V44C64 48.4125 60.4125 52 56 52H38.6625L23.2 63.6C22.6 64.05 21.7875 64.125 21.1 63.7875C20.4125 63.45 20 62.7625 20 62V52H8C3.5875 52 0 48.4125 0 44V8ZM24 22C25.0609 22 26.0783 21.5786 26.8284 20.8284C27.5786 20.0783 28 19.0609 28 18C28 16.9391 27.5786 15.9217 26.8284 15.1716C26.0783 14.4214 25.0609 14 24 14C22.9391 14 21.9217 14.4214 21.1716 15.1716C20.4214 15.9217 20 16.9391 20 18C20 19.0609 20.4214 20.0783 21.1716 20.8284C21.9217 21.5786 22.9391 22 24 22ZM40 22C41.0609 22 42.0783 21.5786 42.8284 20.8284C43.5786 20.0783 44 19.0609 44 18C44 16.9391 43.5786 15.9217 42.8284 15.1716C42.0783 14.4214 41.0609 14 40 14C38.9391 14 37.9217 14.4214 37.1716 15.1716C36.4214 15.9217 36 16.9391 36 18C36 19.0609 36.4214 20.0783 37.1716 20.8284C37.9217 21.5786 38.9391 22 40 22ZM18.8125 29.7625C17.575 30.8625 17.475 32.7625 18.575 34C21.8625 37.675 26.6625 40 31.9875 40C37.3125 40 42.1125 37.675 45.4 34C46.5 32.7625 46.4 30.875 45.1625 29.7625C43.925 28.65 42.0375 28.7625 40.925 30C38.725 32.4625 35.5375 34 31.975 34C28.4125 34 25.2375 32.4625 23.025 30C21.925 28.7625 20.025 28.6625 18.7875 29.7625H18.8125Z" fill="#8246AF"/>
</g>
<defs>
<clipPath id="clip0_322_505">
<rect width="64" height="64" fill="white"/>
</clipPath>
</defs>
</svg>
