<svg width="56" height="64" viewBox="0 0 56 64" fill="none" xmlns="http://www.w3.org/2000/svg">
<g id="whatsapp 1">
<path id="Vector" d="M47.6125 12.1375C42.375 6.8875 35.4 4 27.9875 4C12.6875 4 0.2375 16.45 0.2375 31.75C0.2375 36.6375 1.5125 41.4125 3.9375 45.625L0 60L14.7125 56.1375C18.7625 58.35 23.325 59.5125 27.975 59.5125H27.9875C43.275 59.5125 56 47.0625 56 31.7625C56 24.35 52.85 17.3875 47.6125 12.1375ZM27.9875 54.8375C23.8375 54.8375 19.775 53.725 16.2375 51.625L15.4 51.125L6.675 53.4125L9 44.9L8.45 44.025C6.1375 40.35 4.925 36.1125 4.925 31.75C4.925 19.0375 15.275 8.6875 28 8.6875C34.1625 8.6875 39.95 11.0875 44.3 15.45C48.65 19.8125 51.325 25.6 51.3125 31.7625C51.3125 44.4875 40.7 54.8375 27.9875 54.8375ZM40.6375 37.5625C39.95 37.2125 36.5375 35.5375 35.9 35.3125C35.2625 35.075 34.8 34.9625 34.3375 35.6625C33.875 36.3625 32.55 37.9125 32.1375 38.3875C31.7375 38.85 31.325 38.9125 30.6375 38.5625C26.5625 36.525 23.8875 34.925 21.2 30.3125C20.4875 29.0875 21.9125 29.175 23.2375 26.525C23.4625 26.0625 23.35 25.6625 23.175 25.3125C23 24.9625 21.6125 21.55 21.0375 20.1625C20.475 18.8125 19.9 19 19.475 18.975C19.075 18.95 18.6125 18.95 18.15 18.95C17.6875 18.95 16.9375 19.125 16.3 19.8125C15.6625 20.5125 13.875 22.1875 13.875 25.6C13.875 29.0125 16.3625 32.3125 16.7 32.775C17.05 33.2375 21.5875 40.2375 28.55 43.25C32.95 45.15 34.675 45.3125 36.875 44.9875C38.2125 44.7875 40.975 43.3125 41.55 41.6875C42.125 40.0625 42.125 38.675 41.95 38.3875C41.7875 38.075 41.325 37.9 40.6375 37.5625Z" fill="#25D366"/>
</g>
</svg>
