<svg width="40" height="40" viewBox="0 0 40 40" fill="none" xmlns="http://www.w3.org/2000/svg">
<g id="Capa_1" clip-path="url(#clip0_768_200)">
<g id="Group">
<g id="Group_2">
<path id="Vector" d="M37.7001 25.3251C38.5285 25.3251 39.2001 24.6535 39.2001 23.8251V14.075C39.2001 10.7666 36.5084 8.07505 33.2001 8.07505H30.923C30.2806 8.07505 29.7099 7.66652 29.5029 7.05835L29.0491 5.72507C28.4281 3.90077 26.7162 2.67505 24.7891 2.67505H15.2063C13.3166 2.67505 11.6156 3.86927 10.9739 5.64662L10.4546 7.08452C10.2407 7.67695 9.67375 8.07505 9.04382 8.07505H6.80005C3.49165 8.07505 0.800049 10.7666 0.800049 14.075V31.3251C0.800049 34.6334 3.49165 37.3251 6.80005 37.3251H33.2001C36.5084 37.3251 39.2001 34.6334 39.2001 31.3251C39.2001 30.4966 38.5285 29.8251 37.7001 29.8251C36.8716 29.8251 36.2001 30.4966 36.2001 31.3251C36.2001 32.9792 34.8543 34.3251 33.2001 34.3251H6.80005C5.14585 34.3251 3.80005 32.9792 3.80005 31.3251V14.075C3.80005 12.4208 5.14585 11.075 6.80005 11.075H9.04382C10.9335 11.075 12.6344 9.88082 13.2762 8.10347L13.7954 6.66557C14.0094 6.07315 14.5763 5.67505 15.2063 5.67505H24.7891C25.4315 5.67505 26.0021 6.08365 26.2092 6.69175L26.663 8.02502C27.2839 9.84932 28.9958 11.075 30.923 11.075H33.2001C34.8543 11.075 36.2001 12.4208 36.2001 14.075V23.8251C36.2001 24.6535 36.8716 25.3251 37.7001 25.3251Z" fill="white"/>
</g>
</g>
<g id="Group_3">
<g id="Group_4">
<path id="Vector_2" d="M20.075 12.575C14.9056 12.575 10.7 16.7806 10.7 21.95C10.7 27.1193 14.9056 31.325 20.075 31.325C25.2443 31.325 29.45 27.1193 29.45 21.95C29.45 16.7806 25.2443 12.575 20.075 12.575ZM20.075 28.325C16.5598 28.325 13.7 25.4651 13.7 21.95C13.7 18.4348 16.5598 15.575 20.075 15.575C23.5901 15.575 26.45 18.4348 26.45 21.95C26.45 25.4651 23.5901 28.325 20.075 28.325Z" fill="white"/>
</g>
</g>
</g>
<defs>
<clipPath id="clip0_768_200">
<rect width="38.4" height="38.4" fill="white" transform="translate(0.800049 0.800049)"/>
</clipPath>
</defs>
</svg>
