<svg width="40" height="40" viewBox="0 0 40 40" fill="none" xmlns="http://www.w3.org/2000/svg">
<g id="Capa_1" clip-path="url(#clip0_768_243)">
<g id="Group">
<path id="Vector" d="M11.4341 8.73462C10.6056 8.73462 9.93408 9.40617 9.93408 10.2346V29.7653C9.93408 30.5937 10.6056 31.2653 11.4341 31.2653H28.566C29.3945 31.2653 30.066 30.5937 30.066 29.7653V10.2346C30.066 9.40617 29.3945 8.73462 28.566 8.73462H11.4341ZM27.066 28.2654H12.9341V11.7346H27.066V28.2654Z" fill="white"/>
<path id="Vector_2" d="M35.9975 23.4994C36.8187 23.6072 37.5723 23.0295 37.6806 22.2082C37.7759 21.4846 37.8242 20.7416 37.8242 20C37.8242 17.6711 37.3626 15.458 36.4894 13.6001C36.1583 12.8957 36.1846 12.0724 36.5599 11.3979C37.179 10.2851 37.4762 9.01765 37.4194 7.73237C37.3455 6.05822 36.6632 4.47145 35.4984 3.2644C34.327 2.05067 32.7684 1.324 31.1094 1.21847C29.9272 1.1434 28.7467 1.38137 27.6946 1.90712C27.1237 2.19242 26.4462 2.2051 25.836 1.94162C24.1059 1.19485 22.0878 0.800049 20 0.800049C17.9121 0.800049 15.8941 1.19485 14.164 1.94162C13.5537 2.20495 12.8763 2.1925 12.3053 1.90712C11.2532 1.38145 10.0722 1.14317 8.89061 1.21847C7.23168 1.32407 5.67303 2.05067 4.50161 3.2644C3.33671 4.47152 2.65451 6.0583 2.58048 7.73245C2.52371 9.01772 2.82093 10.2852 3.44006 11.398C3.81536 12.0725 3.84161 12.8958 3.51048 13.6002C2.63733 15.458 2.17578 17.6711 2.17578 20C2.17578 22.329 2.63733 24.542 3.51056 26.4C3.84168 27.1044 3.81536 27.9276 3.44006 28.6022C2.82101 29.715 2.52378 30.9825 2.58056 32.2677C2.65451 33.9419 3.33678 35.5286 4.50161 36.7356C5.67296 37.9494 7.23161 38.676 8.89061 38.7816C10.0725 38.8566 11.2533 38.6187 12.3054 38.0929C12.8763 37.8076 13.5538 37.795 14.1639 38.0585C15.8941 38.8052 17.9121 39.2001 20 39.2001C22.0878 39.2001 24.1059 38.8052 25.836 38.0585C26.4463 37.795 27.1238 37.8076 27.6946 38.0929C28.7468 38.6187 29.9278 38.8567 31.1094 38.7816C32.7683 38.676 34.3269 37.9493 35.4984 36.7356C36.6632 35.5286 37.3455 33.9419 37.4194 32.2676C37.4721 31.0751 37.2173 29.8876 36.6825 28.8335C36.3075 28.0947 35.4048 27.7998 34.6662 28.1745C33.9273 28.5494 33.6324 29.4521 34.0071 30.1909C34.3087 30.7852 34.4523 31.4576 34.4223 32.1352C34.3371 34.0636 32.7982 35.6679 30.9188 35.7876C30.2559 35.8299 29.6225 35.7025 29.0357 35.4092C27.6712 34.7274 26.0716 34.689 24.6471 35.304C23.2892 35.8902 21.6823 36.2001 20 36.2001C18.3177 36.2001 16.7108 35.8902 15.3528 35.3041C13.9284 34.6892 12.3288 34.7275 10.9642 35.4093C10.3774 35.7026 9.74381 35.8297 9.08111 35.7876C7.20168 35.668 5.66283 34.0637 5.57756 32.1353C5.54531 31.4052 5.71271 30.6878 6.06153 30.0607C6.90491 28.545 6.96618 26.6994 6.22563 25.1238C5.54853 23.6834 5.17578 21.8638 5.17578 20C5.17578 18.1363 5.54861 16.3166 6.22563 14.8763C6.96626 13.3007 6.90498 11.4551 6.06161 9.9394C5.71271 9.31225 5.54531 8.59487 5.57756 7.86482C5.66283 5.93642 7.20168 4.33202 9.08111 4.2124C9.74388 4.17032 10.3776 4.29752 10.9642 4.59062C12.3285 5.27252 13.9283 5.31092 15.3528 4.69592C16.7108 4.10987 18.3177 3.80005 20 3.80005C21.6823 3.80005 23.2892 4.10987 24.6471 4.696C26.0716 5.31092 27.6714 5.27252 29.0357 4.59077C29.6225 4.29752 30.2564 4.17047 30.9189 4.21247C32.7983 4.3321 34.3371 5.93642 34.4224 7.8649C34.4547 8.59495 34.2873 9.31232 33.9384 9.9394C33.0951 11.4551 33.0338 13.3007 33.7743 14.8764C34.4514 16.3167 34.8242 18.1364 34.8242 20.0001C34.8242 20.6112 34.7845 21.2222 34.7062 21.8164C34.5981 22.6376 35.1762 23.3912 35.9975 23.4994Z" fill="white"/>
</g>
</g>
<defs>
<clipPath id="clip0_768_243">
<rect width="38.4" height="38.4" fill="white" transform="translate(0.800049 0.800049)"/>
</clipPath>
</defs>
</svg>
