<svg width="40" height="40" viewBox="0 0 40 40" fill="none" xmlns="http://www.w3.org/2000/svg">
<g id="Frame" clip-path="url(#clip0_768_271)">
<path id="Vector" d="M39.2001 8.15015V21.6501C39.2001 21.6666 39.198 21.6824 39.1977 21.6985C39.1965 21.7295 39.1959 21.7609 39.193 21.7917C39.1907 21.8166 39.1863 21.8409 39.1828 21.8655C39.1795 21.8889 39.1766 21.9126 39.1722 21.9358C39.1669 21.9627 39.1602 21.9891 39.1535 22.0155C39.1482 22.0363 39.1435 22.0571 39.1374 22.0776C39.1297 22.1037 39.1207 22.1286 39.1116 22.1538C39.1042 22.1749 39.0972 22.1957 39.0887 22.2165C39.0793 22.2396 39.0685 22.2616 39.0583 22.2841C39.0477 22.3064 39.0377 22.3287 39.0263 22.3503C39.0155 22.3703 39.0041 22.3893 38.9926 22.4086C38.9792 22.4318 38.966 22.4546 38.9513 22.4769C38.9393 22.4951 38.9261 22.5121 38.9132 22.5296C38.8974 22.5516 38.8819 22.5736 38.8649 22.5947C38.8497 22.6131 38.8333 22.6307 38.8171 22.6486C38.801 22.6667 38.7852 22.6855 38.7676 22.7031C38.7457 22.7256 38.7219 22.7464 38.6982 22.7675C38.6865 22.7781 38.6759 22.7895 38.6636 22.7995C38.6622 22.8009 38.6607 22.8018 38.6592 22.803C38.6446 22.8153 38.6288 22.8264 38.6135 22.8381C38.5916 22.8548 38.5699 22.8721 38.547 22.8876C38.5318 22.8982 38.5154 22.9079 38.4996 22.9178C38.4758 22.9328 38.4521 22.948 38.4278 22.9615C38.4117 22.9706 38.3947 22.9785 38.378 22.987C38.3531 22.9996 38.3282 23.0119 38.3027 23.0233C38.2854 23.0309 38.2675 23.0376 38.25 23.0447C38.2242 23.0549 38.1984 23.0646 38.172 23.0731C38.1539 23.0792 38.1357 23.0848 38.1172 23.0901C38.09 23.098 38.063 23.1047 38.0355 23.1112C38.0173 23.1153 37.9995 23.1194 37.981 23.1229C37.9502 23.1288 37.9195 23.1332 37.8887 23.137C37.8732 23.139 37.858 23.1417 37.8421 23.1428C37.7953 23.1475 37.7481 23.1501 37.7009 23.1501C37.7006 23.1501 37.7006 23.1501 37.7003 23.1501C37.7003 23.1501 37.7003 23.1501 37.7001 23.1501C37.6998 23.1501 37.6995 23.1501 37.6992 23.1501C37.6514 23.1501 37.6037 23.1475 37.5562 23.1428C37.5518 23.1425 37.5474 23.1422 37.543 23.1419C37.4997 23.1373 37.4569 23.1305 37.4144 23.1223C37.4059 23.1206 37.3977 23.1194 37.3892 23.1176C37.3494 23.1091 37.3098 23.0986 37.2706 23.0869C37.2612 23.0842 37.2518 23.0816 37.2424 23.0787C37.2038 23.0664 37.1654 23.052 37.1276 23.0365C37.12 23.0333 37.1124 23.03 37.1047 23.0268C37.0658 23.0101 37.0271 22.9917 36.9896 22.9714C36.9855 22.9691 36.9817 22.967 36.9779 22.9647C36.8985 22.9213 36.8226 22.8701 36.7511 22.8115C36.7485 22.8094 36.7458 22.8074 36.7432 22.8053C36.7101 22.7778 36.6782 22.7488 36.6471 22.718C36.6418 22.7127 36.6366 22.7075 36.6313 22.7019C36.6035 22.6738 36.5765 22.6448 36.5504 22.6137L36.5431 22.6049C36.5428 22.6046 36.5425 22.6043 36.5422 22.6041L29.1855 13.8276L23.0528 21.6042C22.5398 22.2545 21.5967 22.3659 20.946 21.8529C20.2957 21.3399 20.1843 20.3968 20.6973 19.7461L27.9723 10.5211C28.2518 10.1667 28.6763 9.95718 29.1275 9.95044C29.5787 9.9437 30.0096 10.1406 30.2997 10.4866L36.2001 17.5257V8.15015C36.2001 6.49605 34.8542 5.15015 33.2001 5.15015H6.80005C5.14595 5.15015 3.80005 6.49605 3.80005 8.15015V27.835L10.1399 20.0992C10.425 19.7517 10.8506 19.5501 11.3 19.5501H11.3074C11.7591 19.5522 12.1863 19.7582 12.4693 20.1106L15.8443 24.3106C16.3631 24.9563 16.2603 25.9005 15.6146 26.4194C14.9686 26.9382 14.0247 26.8354 13.5058 26.1897L11.2886 23.4305L4.78296 31.3688C5.31616 31.854 6.02397 32.1501 6.80005 32.1501H14C14.8286 32.1501 15.5 32.8216 15.5 33.6501C15.5 34.4787 14.8286 35.1501 14 35.1501H6.80005C3.49155 35.1501 0.800049 32.4586 0.800049 29.1501V8.15015C0.800049 4.84165 3.49155 2.15015 6.80005 2.15015H33.2001C36.5085 2.15015 39.2001 4.84165 39.2001 8.15015ZM11.3 7.55015C13.7815 7.55015 15.8 9.5687 15.8 12.0501C15.8 14.5316 13.7815 16.5501 11.3 16.5501C8.8186 16.5501 6.80005 14.5316 6.80005 12.0501C6.80005 9.5687 8.8186 7.55015 11.3 7.55015ZM11.3 10.5501C10.473 10.5501 9.80005 11.2231 9.80005 12.0501C9.80005 12.8772 10.473 13.5501 11.3 13.5501C12.1271 13.5501 12.8 12.8772 12.8 12.0501C12.8 11.2231 12.1271 10.5501 11.3 10.5501ZM39.2001 29.0376V33.0126C39.2001 35.6801 37.03 37.8501 34.3625 37.8501H31.625C30.7965 37.8501 30.125 37.1787 30.125 36.3501V25.7001C30.125 24.8716 30.7965 24.2001 31.625 24.2001H34.3625C37.03 24.2001 39.2001 26.3702 39.2001 29.0376ZM36.2001 29.0376C36.2001 28.0243 35.3756 27.2001 34.3625 27.2001H33.125V34.8501H34.3625C35.3756 34.8501 36.2001 34.026 36.2001 33.0126V29.0376ZM26 24.2001C25.1715 24.2001 24.5 24.8716 24.5 25.7001V29.5251H21.5V25.7001C21.5 24.8716 20.8286 24.2001 20 24.2001C19.1715 24.2001 18.5 24.8716 18.5 25.7001V36.3501C18.5 37.1787 19.1715 37.8501 20 37.8501C20.8286 37.8501 21.5 37.1787 21.5 36.3501V32.5251H24.5V36.3501C24.5 37.1787 25.1715 37.8501 26 37.8501C26.8286 37.8501 27.5 37.1787 27.5 36.3501V25.7001C27.5 24.8716 26.8286 24.2001 26 24.2001Z" fill="white"/>
</g>
<defs>
<clipPath id="clip0_768_271">
<rect width="38.4" height="38.4" fill="white" transform="translate(0.800049 0.800049)"/>
</clipPath>
</defs>
</svg>
