<svg width="25" height="25" viewBox="0 0 25 25" fill="none" xmlns="http://www.w3.org/2000/svg">
<g id="Layer_1" clip-path="url(#clip0_1686_1313)">
<g id="Group">
<path id="Vector" d="M20.9853 4.01469C18.7188 1.74825 15.7053 0.5 12.5 0.5C9.29469 0.5 6.28123 1.74825 4.01469 4.01469C1.74825 6.28123 0.5 9.29469 0.5 12.5C0.5 15.7053 1.74825 18.7188 4.01469 20.9853C6.28123 23.2518 9.29469 24.5 12.5 24.5C15.7053 24.5 18.7188 23.2518 20.9853 20.9853C23.2518 18.7188 24.5 15.7053 24.5 12.5C24.5 9.29469 23.2518 6.28123 20.9853 4.01469ZM12.5 23.0155C6.70175 23.0155 1.98454 18.2983 1.98454 12.5C1.98454 6.70175 6.70175 1.98454 12.5 1.98454C18.2983 1.98454 23.0155 6.70175 23.0155 12.5C23.0155 18.2983 18.2983 23.0155 12.5 23.0155Z" fill="white"/>
<path id="Vector_2" d="M9.45996 17.1553L17.5198 12.5L9.45996 7.84474V17.1553Z" fill="white"/>
</g>
</g>
<defs>
<clipPath id="clip0_1686_1313">
<rect width="24" height="24" fill="white" transform="translate(0.5 0.5)"/>
</clipPath>
</defs>
</svg>
