<svg width="40" height="40" viewBox="0 0 40 40" fill="none" xmlns="http://www.w3.org/2000/svg">
<g id="Capa_1" clip-path="url(#clip0_768_259)">
<g id="Group">
<path id="Vector" d="M36.9391 9.77434C36.9181 9.36979 36.6811 9.00777 36.3188 8.82664L20.5031 0.918793C20.1864 0.760468 19.8137 0.760468 19.4969 0.918793L3.68131 8.82664C3.31898 9.00777 3.08198 9.36979 3.06098 9.77434C3.04898 10.0046 2.78888 15.4869 4.65646 21.852C5.76151 25.618 7.38691 28.9073 9.48751 31.6285C12.1346 35.0577 15.5369 37.5803 19.5999 39.1265C19.7288 39.1755 19.8644 39.2 20 39.2C20.1357 39.2 20.2712 39.1755 20.4002 39.1265C24.4631 37.5804 27.8654 35.0577 30.5126 31.6285C32.6132 28.9073 34.2386 25.6179 35.3436 21.852C37.2112 15.4869 36.9511 10.0046 36.9391 9.77434ZM33.1663 21.2808C30.8759 29.0315 26.4475 34.2731 20 36.867C13.5526 34.2731 9.12406 29.0315 6.83378 21.2808C5.41868 16.4917 5.28848 12.1321 5.29508 10.5354L20 3.18282L34.7049 10.5352C34.7116 12.1328 34.5812 16.4921 33.1663 21.2808Z" fill="white"/>
<path id="Vector_2" d="M31.7696 11.5832L20.5031 5.95001C20.1864 5.79169 19.8136 5.79176 19.4969 5.95001L8.23056 11.5832C7.82676 11.785 7.58271 12.2088 7.61084 12.6594C7.73309 14.6215 8.08124 17.631 9.04581 20.8247C10.9742 27.21 14.492 31.7036 19.5014 34.1804C19.6585 34.2581 19.8293 34.2969 20 34.2969C20.1707 34.2969 20.3416 34.2581 20.4986 34.1804C25.508 31.7036 29.0258 27.21 30.9542 20.8247C31.9186 17.6313 32.2669 14.6217 32.3893 12.6594C32.4175 12.2088 32.1734 11.785 31.7696 11.5832ZM28.8004 20.1741C27.1253 25.7208 24.166 29.6649 20.0001 31.9062C15.8342 29.6649 12.8749 25.7208 11.1997 20.1741C10.4109 17.5623 10.0624 15.0747 9.91056 13.2588L20.0001 8.21396L30.0897 13.2588C29.9377 15.0749 29.5891 17.5625 28.8004 20.1741Z" fill="white"/>
</g>
</g>
<defs>
<clipPath id="clip0_768_259">
<rect width="38.4" height="38.4" fill="white" transform="translate(0.800049 0.800049)"/>
</clipPath>
</defs>
</svg>
